<svg xmlns="http://www.w3.org/2000/svg" viewBox="0 0 182.27 416.56"><defs><style>.cls-1{fill:#ed1c24;}.cls-2{fill:#be1e2d;}.cls-3{fill:#ef4136;}</style></defs><g id="Layer_2" data-name="Layer 2"><path class="cls-1" d="M176.27,196.05,171,80.8s-1.85-19.51,10-20S195.26,77.9,195.26,77.9l14.25,101.8s1.84-12.92,15.56-13.18,17.93,9.23,20.83,16.61h2.21s3.56-19.28,20.18-19.48,17.3,14.54,18.89,17.31,8.9-34,11.07-65.87,3.17-88.42,20.38-88.22,13.25,24.53,12.66,57-5.34,68-3.37,95.53-.95,59.06,4.17,77.89A35.76,35.76,0,0,1,346.52,264c7.12,5.54,7.71,23.15,5.53,27.5S343,313.68,294.69,342c0,0,6.13,71.6,5.34,77.34s2.38,26.31-56.37,23.93-58-32.64-58-32.64S193,344.74,197.18,335c0,0-18.2-23.73-22.16-59.34C175,275.7,169.22,234.49,176.27,196.05Z" transform="translate(-170.9 -26.87)"/></g><g id="Layer_9" data-name="Layer 9"><path class="cls-2" d="M293.41,178.68s4.45,3.66,13.64,3.86S322,179.67,322,179.67,301.91,183.11,293.41,178.68Z" transform="translate(-170.9 -26.87)"/><path class="cls-2" d="M301.62,130.32a27.37,27.37,0,0,0,11.12,2.77,24.48,24.48,0,0,0,11.89-2.77S312.16,132.3,301.62,130.32Z" transform="translate(-170.9 -26.87)"/><path class="cls-2" d="M305.27,78.59s3.27,2.72,11.67,2.72,12.17-1.88,12.17-1.88C329.2,79.91,314.73,80.16,305.27,78.59Z" transform="translate(-170.9 -26.87)"/><path class="cls-2" d="M175.58,106.12s2.21,2.84,9.83,2.64,10.71-2.87,10.71-2.87l-9.7.66a17.18,17.18,0,0,1-1.9,0Z" transform="translate(-170.9 -26.87)"/><path class="cls-2" d="M177.79,151.78s2.57,2.77,10.88,2.18,11.14-3.43,11.14-3.43A128.13,128.13,0,0,1,177.79,151.78Z" transform="translate(-170.9 -26.87)"/><path class="cls-2" d="M178.78,195.26s5.14,1.59,15.3,0,12.79-7.64,12.79-7.64S196.45,194.74,178.78,195.26Z" transform="translate(-170.9 -26.87)"/><path class="cls-2" d="M287.18,206.87a94.11,94.11,0,0,0,9.88-7.78l-14,7.38c-2.51,1-39.85,10.83-42.46,11.48l-64.75,13.71c10.42,3.49,103.52-20.46,109.45-23.34,8.08-3.92,11.73-9.23,11.73-9.23" transform="translate(-170.9 -26.87)"/><path class="cls-2" d="M206.27,262.55s64.42-17,105.7-39.33C312,223.22,219.15,256.46,206.27,262.55Z" transform="translate(-170.9 -26.87)"/><path class="cls-2" d="M218.82,259.34" transform="translate(-170.9 -26.87)"/><path class="cls-2" d="M206.27,262.55" transform="translate(-170.9 -26.87)"/></g><g id="Layer_5" data-name="Layer 5"><path class="cls-2" d="M209.51,179.7s1.84-12.92,15.56-13.18,18.91,8.91,20.83,16.61c.66,2.64,1.42,69.63.92,73.19s-1.58,15.63-13,15.63S220,262,217.55,256.12s-5.93-21.76-6.33-34.32S208.78,189.33,209.51,179.7Z" transform="translate(-170.9 -26.87)"/><path class="cls-2" d="M248.11,183.13s3.56-19.28,20.18-19.48,18.89,14.12,18.89,17.31c0,0-.89,33.72-1.19,37.08s-.4,16.32-1,19.78-.49,18.5-2.27,20.18c0,0-17.51,2.67-27.5,8.51,0,0-3.76-5.94-4-11s-3-55.68-3.07-72.4" transform="translate(-170.9 -26.87)"/></g><g id="Layer_6" data-name="Layer 6"><path class="cls-3" d="M220.7,263.9c2.28,4.26,5.86,8.05,12.92,8.05,7.62,0,12.35-8.61,12-9.95,0,0-2-8.85-3.52-10.63s-6.33-2.67-10.09-2.77-10.39.89-11.87,6.53S220.7,263.9,220.7,263.9Z" transform="translate(-170.9 -26.87)"/><path class="cls-3" d="M255.59,266.21c8.22-4.6,21-7.16,25.43-7.95,0,0,.16-7.27-5.81-8.67-8.47-2-14.14,0-14.14,0s-6.23.3-5.94,7.22S255.59,266.21,255.59,266.21Z" transform="translate(-170.9 -26.87)"/></g><g id="Layer_3" data-name="Layer 3"><path class="cls-2" d="M253.29,301c-14-3.73-18.33-22.42-.93-33.1s55-14.37,63.17-13.71a99,99,0,0,1,16.56,3A35.76,35.76,0,0,1,346.52,264c7.12,5.54,7.71,23.15,5.53,27.5-.6,1.21-1,2.12-1.69,3.36-4.05,7.17-8.25,12.42-11.87,15.11a68.84,68.84,0,0,1-15.58-1.59c-3.67-.77-21.49-10.16-21.49-10.16S278.6,307.75,253.29,301Z" transform="translate(-170.9 -26.87)"/></g><g id="Layer_4" data-name="Layer 4"><path class="cls-3" d="M241,285.06c-.87-5.88,3.59-12.34,11.4-17.14a50.32,50.32,0,0,1,5.92-3.06s9.07-3.2,12.5,1,4,17,1.19,21.89-6.6,6.59-13.59,8.18S242.52,295.67,241,285.06Z" transform="translate(-170.9 -26.87)"/></g><g id="Layer_8" data-name="Layer 8"><path class="cls-2" d="M218.24,340.09c17.59-2.18,20.67-21.17,20.67-21.17L238.12,276s0-4.05,1-4.05,1.09,4.15,1.09,4.15l.75,42.82c1.45,16.52,21.08,27.7,21.08,27.7s24,3.46,32.66-4.65c0,0-2.37,11.47-17.21,12.85s-24.13,1.59-38.57,0-28.88-3.95-36.59-9.89-4.95-6.52-5.14-9.89C197.18,335,209.44,341.18,218.24,340.09Z" transform="translate(-170.9 -26.87)"/></g></svg>