<svg id="Layer_1" data-name="Layer 1" xmlns="http://www.w3.org/2000/svg" viewBox="0 0 15 15"><defs><style>.cls-1{fill:#fff;}</style></defs><path class="cls-1" d="M16.45,5.91a5.64,5.64,0,0,0-.34-1.82,3.7,3.7,0,0,0-.87-1.33,3.55,3.55,0,0,0-1.33-.86,5.35,5.35,0,0,0-1.82-.35C11.3,1.5,11,1.5,9,1.5s-2.3,0-3.09.05a5.35,5.35,0,0,0-1.82.35,3.55,3.55,0,0,0-1.33.86A3.55,3.55,0,0,0,1.9,4.09a5.35,5.35,0,0,0-.35,1.82C1.5,6.7,1.5,7,1.5,9s0,2.3.05,3.09a5.35,5.35,0,0,0,.35,1.82,3.55,3.55,0,0,0,.86,1.33,3.55,3.55,0,0,0,1.33.86,5.35,5.35,0,0,0,1.82.35c.79.05,1,.05,3.09.05s2.3,0,3.09-.05a5.35,5.35,0,0,0,1.82-.35,3.43,3.43,0,0,0,1.33-.86,3.57,3.57,0,0,0,.87-1.33,5.64,5.64,0,0,0,.34-1.82c0-.79.05-1.05.05-3.09S16.5,6.7,16.45,5.91ZM6.29,11.72A3.85,3.85,0,1,1,12.85,9,3.85,3.85,0,0,1,6.29,11.72Zm6.22-6.23a1.41,1.41,0,1,1,2.4-1A1.41,1.41,0,0,1,12.51,5.49Z" transform="translate(-1.5 -1.5)"/></svg>