<svg id="Layer_1" data-name="Layer 1" xmlns="http://www.w3.org/2000/svg" viewBox="0 0 15 15"><defs><style>.cls-1{fill:#fff;}</style></defs><path class="cls-1" d="M9,11.5A2.5,2.5,0,1,1,11.5,9,2.5,2.5,0,0,1,9,11.5ZM9,5.15A3.85,3.85,0,1,0,12.85,9,3.85,3.85,0,0,0,9,5.15ZM15.1,12a4.17,4.17,0,0,1-.25,1.4,2.33,2.33,0,0,1-.56.86,2.56,2.56,0,0,1-.86.56,4.17,4.17,0,0,1-1.4.25c-.75,0-1,0-3,0s-2.25,0-3,0a4,4,0,0,1-1.46-.22,2.55,2.55,0,0,1-.82-.56,2.33,2.33,0,0,1-.56-.86A4.4,4.4,0,0,1,2.89,12c0-.75,0-1,0-3s0-2.25,0-3a4.37,4.37,0,0,1,.27-1.43,2.26,2.26,0,0,1,.59-.82,2.42,2.42,0,0,1,.82-.6A4.14,4.14,0,0,1,6,2.9c.75,0,1,0,3,0s2.25,0,3,0a4.17,4.17,0,0,1,1.4.25,2.42,2.42,0,0,1,.89.6,2.31,2.31,0,0,1,.56.82A4.14,4.14,0,0,1,15.1,6c0,.75.05,1,.05,3S15.14,11.25,15.1,12Zm1.35-6.09a5.64,5.64,0,0,0-.34-1.82,3.7,3.7,0,0,0-.87-1.33,3.55,3.55,0,0,0-1.33-.86,5.35,5.35,0,0,0-1.82-.35C11.3,1.5,11,1.5,9,1.5s-2.3,0-3.09.05a5.35,5.35,0,0,0-1.82.35,3.55,3.55,0,0,0-1.33.86A3.55,3.55,0,0,0,1.9,4.09a5.35,5.35,0,0,0-.35,1.82C1.5,6.7,1.5,7,1.5,9s0,2.3.05,3.09a5.35,5.35,0,0,0,.35,1.82,3.55,3.55,0,0,0,.86,1.33,3.55,3.55,0,0,0,1.33.86,5.35,5.35,0,0,0,1.82.35c.79.05,1,.05,3.09.05s2.3,0,3.09-.05a5.35,5.35,0,0,0,1.82-.35,3.43,3.43,0,0,0,1.33-.86,3.57,3.57,0,0,0,.87-1.33,5.64,5.64,0,0,0,.34-1.82c0-.79.05-1.05.05-3.09S16.5,6.7,16.45,5.91ZM13,4.09a.9.9,0,1,0,.91.91A.91.91,0,0,0,13,4.09Z" transform="translate(-1.5 -1.5)"/></svg>