<svg id="Layer_1" data-name="Layer 1" xmlns="http://www.w3.org/2000/svg" viewBox="0 0 15 12.22"><defs><style>.cls-1{fill:#fff;}</style></defs><path class="cls-1" d="M16.5,4.35a6.36,6.36,0,0,1-1.77.48,3.1,3.1,0,0,0,1.36-1.7,6.32,6.32,0,0,1-2,.75,3.07,3.07,0,0,0-5.25,2.8A8.72,8.72,0,0,1,2.54,3.47,3.1,3.1,0,0,0,2.13,5,3.06,3.06,0,0,0,3.5,7.57a3,3,0,0,1-1.4-.38v0a3.08,3.08,0,0,0,2.47,3,3.19,3.19,0,0,1-.82.13,5.67,5.67,0,0,1-.58,0,3.07,3.07,0,0,0,2.88,2.12,6.15,6.15,0,0,1-3.8,1.32,6.28,6.28,0,0,1-.75,0A8.68,8.68,0,0,0,6.22,15.1,8.71,8.71,0,0,0,15,6.34v-.4A6.13,6.13,0,0,0,16.5,4.35Z" transform="translate(-1.5 -2.87)"/></svg>