<svg id="Layer_1" data-name="Layer 1" xmlns="http://www.w3.org/2000/svg" viewBox="0 0 36 25.5"><defs><style>.cls-1{fill:#fff;fill-rule:evenodd;}</style></defs><path class="cls-1" d="M35.64,5.5a7.87,7.87,0,0,0-1.43-3.6A5.11,5.11,0,0,0,30.6.37C25.57,0,18,0,18,0h0S10.43,0,5.4.37A5.13,5.13,0,0,0,1.79,1.9,7.87,7.87,0,0,0,.36,5.5,55.13,55.13,0,0,0,0,11.37v2.75A55.13,55.13,0,0,0,.36,20a7.9,7.9,0,0,0,1.43,3.6C3.16,25,5,25,5.76,25.14c2.88.27,12.24.36,12.24.36s7.57,0,12.6-.38a5.16,5.16,0,0,0,3.61-1.53A7.9,7.9,0,0,0,35.64,20,55.13,55.13,0,0,0,36,14.12V11.37A55.13,55.13,0,0,0,35.64,5.5Zm-21.36,12V7.27L24,12.38Z"/></svg>